<svg xmlns="http://www.w3.org/2000/svg" width="196.14" height="186.45" viewBox="0 0 196.14 186.45">
  <g id="Fill" transform="translate(-1.47 -4.03)">
    <path id="Path_32914" data-name="Path 32914" d="M113.67,9.67a20.533,20.533,0,0,0-28.27,0L1.47,93.54l9.47,9.47L26.2,87.74v82.74a19.994,19.994,0,0,0,20,20H152.87a19.994,19.994,0,0,0,20-20V87.74l15.27,15.27,9.47-9.47ZM86.2,177.14V130.47h26.67v46.67Zm73.34-6.67a6.668,6.668,0,0,1-6.67,6.67H126.2v-60H72.87v60H46.2a6.668,6.668,0,0,1-6.67-6.67V74.4L94.8,19.07a6.675,6.675,0,0,1,9.43-.04l.04.04L159.54,74.4v96.07Z" fill="#35625d"/>
  </g>
</svg>
