<svg xmlns="http://www.w3.org/2000/svg" width="195.73" height="135.98" viewBox="0 0 195.73 135.98">
  <g id="menu-4" transform="translate(-2.13 -31.34)">
    <path id="Path_32917" data-name="Path 32917" d="M99.99,42.91c.41,0,40.78,0,67.44,1.92l1.17.11c3.56.32,7.4.69,11.17,4.59h0c1.78,1.78,3.81,8.08,4.5,12.58a278.7,278.7,0,0,1,1.78,29.73V106.5a279.073,279.073,0,0,1-1.78,29.75c-.66,4.4-2.74,10.78-4.48,12.46h0c-3.75,3.88-7.69,4.25-11.16,4.59l-1.21.12c-26.19,1.78-65.64,1.96-67.42,1.96-2.05,0-49.82-.48-65.07-1.78-.91-.14-1.78-.27-2.81-.37-4.06-.48-8.67-1.03-11.98-4.47h0c-1.78-1.78-3.81-8.06-4.48-12.54a278.7,278.7,0,0,1-1.78-29.73V91.97a278.542,278.542,0,0,1,1.78-29.73c.69-4.54,2.76-10.84,4.5-12.58h0c3.77-3.9,7.7-4.25,11.17-4.59l1.17-.11c26.69-1.9,67.03-1.92,67.42-1.92h.05m.02-11.57h0s-41.09,0-68.47,1.96c-3.83.44-12.15.48-19.57,8.17C6.1,47.47,4.17,60.8,4.17,60.8A289.875,289.875,0,0,0,2.13,91.97v14.66a287.256,287.256,0,0,0,1.96,31.3s1.9,13.33,7.78,19.18c7.46,7.69,17.22,7.46,21.58,8.27,15.66,1.48,66.55,1.94,66.55,1.94s41.12,0,68.52-2.01c3.83-.44,12.17-.5,19.57-8.19,5.85-5.85,7.78-19.18,7.78-19.18a287.3,287.3,0,0,0,1.99-31.3V91.99a287.256,287.256,0,0,0-1.96-31.3s-1.9-13.33-7.78-19.2c-7.44-7.69-15.78-7.74-19.57-8.17-27.44-1.98-68.56-1.98-68.56-1.98v.13Z" fill="#35625d"/>
    <path id="Path_32918" data-name="Path 32918" d="M82.43,70.17V128.5l49.8-29.16Z" fill="#35625d"/>
  </g>
</svg>
