<svg xmlns="http://www.w3.org/2000/svg" width="110.49" height="151.19" viewBox="0 0 110.49 151.19">
  <g id="menu-5" transform="translate(-40.04 -24.42)">
    <path id="Path_32919" data-name="Path 32919" d="M144.72,123.28l-19.35-18.79a15.8,15.8,0,0,1-3.91-10.4V82.57c0-28.76,18.36-55.45,18.36-55.45l4.9,3.11Z" fill="#35625d"/>
    <circle id="Ellipse_672" data-name="Ellipse 672" cx="5.81" cy="5.81" r="5.81" transform="translate(138.91 24.43)" fill="#35625d"/>
    <path id="Path_32920" data-name="Path 32920" d="M150.53,30.24H138.9l-5.81,58.15v78.5a8.728,8.728,0,0,0,8.72,8.72h0a8.728,8.728,0,0,0,8.72-8.72Z" fill="#35625d"/>
    <path id="Path_32921" data-name="Path 32921" d="M87.07,27.01a3.188,3.188,0,0,0-6.32.6V61.38a3.751,3.751,0,0,1-7.48.41L69.43,27.25a3.184,3.184,0,0,0-3.17-2.83h-.1a3.185,3.185,0,0,0-3.17,2.84L59.15,61.8a3.752,3.752,0,0,1-7.48-.42V27.61a3.188,3.188,0,0,0-6.32-.6c-1.41,7.37-5.31,28.59-5.31,38.12,0,23.26,17.44,29.07,17.44,29.07v72.69a8.72,8.72,0,1,0,17.44,0V94.2s17.44-5.81,17.44-29.07C92.38,55.6,88.48,34.38,87.07,27.01Z" fill="#35625d"/>
  </g>
</svg>
