<svg xmlns="http://www.w3.org/2000/svg" width="73.068" height="73.068" viewBox="0 0 73.068 73.068">
  <g id="Group_46585" data-name="Group 46585" transform="translate(17941.535 18529.5)">
    <g id="floppy-disk" transform="translate(-17941.035 -18529.004)">
      <path id="Path_69814" data-name="Path 69814" d="M72.058,17.814a2.115,2.115,0,0,0-.467-1.13c-.105-.129.97.955-16.047-16.063A2.128,2.128,0,0,0,54.05,0H6.333A6.341,6.341,0,0,0,0,6.337v59.4a6.341,6.341,0,0,0,6.334,6.334h59.4a6.341,6.341,0,0,0,6.334-6.334c0-51.263.006-47.762-.01-47.924ZM48.561,4.226V18.02a2.114,2.114,0,0,1-2.111,2.111H43.776V4.226Zm-9.009,0V20.132H19.987a2.114,2.114,0,0,1-2.111-2.111V4.226Zm9.009,40.961H17.876V42.513A2.114,2.114,0,0,1,19.987,40.4H46.45a2.114,2.114,0,0,1,2.111,2.111ZM17.876,67.849V49.41H48.561v18.44Zm49.97-2.111a2.114,2.114,0,0,1-2.111,2.111H52.784V42.513a6.341,6.341,0,0,0-6.334-6.334H19.987a6.341,6.341,0,0,0-6.334,6.334V67.849H6.333a2.114,2.114,0,0,1-2.111-2.111V6.337A2.114,2.114,0,0,1,6.333,4.226h7.32V18.02a6.341,6.341,0,0,0,6.334,6.334H46.45a6.341,6.341,0,0,0,6.334-6.334V4.226h.392L67.845,18.895Z" transform="translate(0 0)" fill="#fff" stroke="#f00707" stroke-width="1"/>
    </g>
  </g>
</svg>
