<svg xmlns="http://www.w3.org/2000/svg" width="564.119" height="555.502" viewBox="0 0 564.119 555.502">
  <g id="Group_9523" data-name="Group 9523" transform="translate(3681.632 -8070.143)">
    <g id="swipe-left" transform="translate(-3791.87 8313.315) rotate(-45)">
      <g id="Group_9519" data-name="Group 9519">
        <g id="Group_9518" data-name="Group 9518">
          <path id="Path_69188" data-name="Path 69188" d="M429.685,131.12a40.754,40.754,0,0,0-53.461-3.627,40.846,40.846,0,0,0-68.1-17.771L162.891,254.96l-13.525-86.144a47.787,47.787,0,0,0-47.083-40.832,32.039,32.039,0,0,0-32,32V361.136A116.556,116.556,0,0,0,104.651,444.1l33.557,33.557a117.217,117.217,0,0,0,161.728,3.84l88.149-80.213a40.855,40.855,0,0,0-.128-57.749,39.928,39.928,0,0,0-17.643-10.325A40.887,40.887,0,0,0,349.407,269.3l80.4-80.427A40.854,40.854,0,0,0,429.685,131.12Zm-14.933,42.624-128,128a10.673,10.673,0,0,0,15.083,15.1L324.086,294.6a19.505,19.505,0,0,1,27.584,27.584l-22.251,22.251c0,.021-.043.043-.064.064A10.665,10.665,0,0,0,344.5,359.515l.917-.917a19.8,19.8,0,0,1,27.584.128c7.573,7.573,7.573,19.883.363,27.115l-87.787,79.872a95.9,95.9,0,0,1-132.309-3.136L119.713,429.02A95.369,95.369,0,0,1,91.6,361.137V159.984a10.671,10.671,0,0,1,10.667-10.667,26.4,26.4,0,0,1,25.984,22.677L145.1,278.917a10.656,10.656,0,0,0,18.069,5.888L323.233,124.741a19.505,19.505,0,0,1,27.584,27.584L244.085,259.056a10.673,10.673,0,0,0,15.083,15.1l128-128a19.505,19.505,0,0,1,27.584,27.584Z" fill="#fff"/>
        </g>
      </g>
    </g>
    <g id="Group_9520" data-name="Group 9520" transform="translate(-3372.478 8280.4) rotate(180)">
      <g id="Group_9522" data-name="Group 9522" transform="translate(117.538)">
        <path id="Path_69190" data-name="Path 69190" d="M226.568,0,207.215,19.353,256.761,68.9H117.538V96.274H256.761l-49.437,49.464,19.353,19.353,82.477-82.5Z" transform="translate(-117.538)" fill="#fff"/>
      </g>
    </g>
  </g>
</svg>
